<?xml version="1.0" encoding="utf-8"?>
<!-- Generator: Adobe Illustrator 25.4.1, SVG Export Plug-In . SVG Version: 6.00 Build 0)  -->
<svg version="1.1" xmlns="http://www.w3.org/2000/svg" xmlns:xlink="http://www.w3.org/1999/xlink" x="0px" y="0px"
	 viewBox="0 0 300 467.65" style="enable-background:new 0 0 300 467.65;" xml:space="preserve">
<style type="text/css">
	.st0{fill:#ACB0B5;}
	.st1{fill:#E2E2E2;}
	.st2{fill:#939496;}
	.st3{fill:#231F20;}
	.st4{fill:#FFFFFF;}
	.st5{fill:#8CD392;}
	.st6{clip-path:url(#SVGID_00000098217435222429581630000006745648465174109115_);}
	.st7{clip-path:url(#SVGID_00000178916588094515053910000012716365197413811879_);fill:#002C76;}
</style>
<g id="Baby_Koala_-_Front_-_Body">
</g>
<g id="Baby_Koala_-_Front_-_Leg_Rear_Right">
</g>
<g id="Baby_Koala_-_Front_-_Leg_Rear_Left">
</g>
<g id="Baby_Koala_-_Front_-_Leg_Right">
</g>
<g id="Baby_Koala_-_Front_-_Leg_Left">
</g>
<g id="Baby_Koala_-_Front_-_Right_Ear">
</g>
<g id="Baby_Koala_-_Front_-_Left_Ear">
</g>
<g id="Baby_Koala_-_Front_-_Head">
</g>
<g id="Baby_Koala_-_Front_-_Eye_Right">
</g>
<g id="Baby_Koala_-_Front_-_Eye_Left">
</g>
<g id="Baby_Koala_-_Front_-_Leaves">
</g>
<g id="Baby_Koala_-_Front_-_Lips">
</g>
<g id="Baby_Koala_-_Front_-_Nose">
	<path class="st0" d="M180.58,79.31h-54.99c-36.73,0-66.51,31.25-66.51,69.81L50.1,389.65c0,38.55,38.43,69.81,75.17,69.81h54.99
		c36.73,0,75.17-31.25,75.17-69.81l-8.33-240.54C247.1,110.56,217.32,79.31,180.58,79.31z"/>
	<path class="st1" d="M172.29,136.33h-38.5c-25.71,0-46.56,24.71-46.56,55.19L87,381.71c0,30.48,20.85,55.19,46.57,55.19h38.49
		c25.72,0,46.56-24.71,46.56-55.19l0.23-190.18C218.85,161.04,198,136.33,172.29,136.33z"/>
	<path class="st2" d="M220.94,434.51c-6.1,15.57,1.58,33.14,17.15,39.24l0,0c15.57,6.1,33.14-1.58,39.24-17.15l25.24-64.44
		c6.1-15.57-1.58-33.14-17.15-39.24l0,0c-15.57-6.1-33.14,1.58-39.24,17.15L220.94,434.51z"/>
	<path class="st2" d="M90.91,434.51c6.1,15.57-1.58,33.14-17.15,39.24l0,0c-15.57,6.1-33.13-1.58-39.23-17.15L9.28,392.16
		c-6.1-15.57,1.58-33.14,17.15-39.24l0,0c15.57-6.1,33.14,1.58,39.23,17.15L90.91,434.51z"/>
	<path class="st2" d="M247.18,185.48c0,0-2.48,78.3-22.88,98.17c-15.83,15.42-39,35.05-18.27,48.08
		c20.74,13.02,48.12-8.35,55.61-18.18c7.49-9.83,16.28-32.2,17.59-58.3C280.54,229.14,282.48,194.9,247.18,185.48z"/>
	<path class="st2" d="M60.35,185.73c0,0,2.24,78.52,23.64,97.3c16.61,14.57,40.77,32.97,20.74,47.06
		c-20.03,14.08-48.49-5.84-56.48-15.27c-8-9.43-17.93-31.31-20.59-57.31C24.99,231.51,25.58,196.97,60.35,185.73z"/>
	<path class="st0" d="M292.96,40.38c10.5,26.53-3.12,56.79-30.41,67.58c-27.29,10.8-57.93-1.95-68.42-28.48
		c-10.5-26.52,3.12-56.78,30.41-67.58C251.83,1.11,282.47,13.86,292.96,40.38z"/>
	<path class="st1" d="M283.08,44.3c8.4,21.22-2.5,45.43-24.33,54.07c-21.83,8.64-46.34-1.56-54.73-22.79
		c-8.4-21.21,2.49-45.42,24.32-54.06C250.18,12.88,274.68,23.08,283.08,44.3z"/>
	<path class="st0" d="M8.13,40.38c-10.5,26.53,3.12,56.79,30.41,67.58s57.93-1.95,68.42-28.48c10.5-26.52-3.12-56.78-30.41-67.58
		C49.26,1.11,18.62,13.86,8.13,40.38z"/>
	<path class="st1" d="M18.01,44.3c-8.4,21.22,2.5,45.43,24.33,54.07C64.18,107,88.69,96.8,97.08,75.58
		c8.4-21.21-2.49-45.42-24.32-54.06C50.91,12.88,26.41,23.08,18.01,44.3z"/>
	<path class="st0" d="M247.1,127.69c0,54.58-42.16,72.87-94.18,72.87l0,0c-52.01,0-94.18-18.29-94.18-72.87v-22.23
		c0-54.58,42.17-72.87,94.18-72.87l0,0c52.02,0,94.18,18.3,94.18,72.87V127.69z"/>
	<path class="st3" d="M199.14,105.99c0,6.37-5.16,11.54-11.53,11.54c-6.37,0-11.54-5.17-11.54-11.54c0-6.37,5.17-11.54,11.54-11.54
		C193.97,94.46,199.14,99.62,199.14,105.99z"/>
	<path class="st4" d="M193.22,101.01c0,1.73-1.4,3.13-3.13,3.13c-1.72,0-3.12-1.4-3.12-3.13c0-1.73,1.4-3.13,3.12-3.13
		C191.82,97.88,193.22,99.28,193.22,101.01z"/>
	<path class="st3" d="M132.5,105.99c0,6.37-5.17,11.54-11.54,11.54c-6.37,0-11.53-5.17-11.53-11.54c0-6.37,5.17-11.54,11.53-11.54
		C127.34,94.46,132.5,99.62,132.5,105.99z"/>
	<path class="st4" d="M126.58,101.01c0,1.73-1.4,3.13-3.13,3.13c-1.73,0-3.13-1.4-3.13-3.13c0-1.73,1.4-3.13,3.13-3.13
		C125.18,97.88,126.58,99.28,126.58,101.01z"/>
	<path class="st5" d="M195,154.13c-0.16,0.26-15.94,24.67-42.91,7.35C152.18,161.34,167.99,136.8,195,154.13z"/>
	<path class="st5" d="M192.84,174.65c-0.26,0.15-25.47,14.62-41.51-13.12C151.47,161.44,176.77,146.86,192.84,174.65z"/>
	<path class="st2" d="M127.78,157.86c0,6.26,5.92,11.33,13.22,11.33c7.3,0,13.22-5.07,13.22-11.33s-5.92-11.32-13.22-11.32
		C133.7,146.54,127.78,151.61,127.78,157.86z"/>
	<path class="st2" d="M153.73,157.86c0,6.26,5.92,11.33,13.22,11.33s13.22-5.07,13.22-11.33s-5.92-11.32-13.22-11.32
		S153.73,151.61,153.73,157.86z"/>
	<path class="st3" d="M169.58,143.1c0,9.2-7.46,16.65-16.66,16.65l0,0c-9.2,0-16.65-7.46-16.65-16.65v-14.27
		c0-9.2,7.46-16.66,16.65-16.66l0,0c9.2,0,16.66,7.46,16.66,16.66V143.1z"/>
	<g>
		<g>
			<defs>
				<rect id="SVGID_1_" x="-119.67" y="115.59" width="546.82" height="307.58"/>
			</defs>
			<clipPath id="SVGID_00000085942865562175022220000003638151957498859702_">
				<use xlink:href="#SVGID_1_"  style="overflow:visible;"/>
			</clipPath>
			<g style="clip-path:url(#SVGID_00000085942865562175022220000003638151957498859702_);">
				<defs>
					
						<rect id="SVGID_00000011013777903205345270000006316650735742594737_" x="-119.67" y="115.59" width="546.82" height="307.58"/>
				</defs>
				<clipPath id="SVGID_00000058567377279490605570000008360081067357836452_">
					<use xlink:href="#SVGID_00000011013777903205345270000006316650735742594737_"  style="overflow:visible;"/>
				</clipPath>
				<path style="clip-path:url(#SVGID_00000058567377279490605570000008360081067357836452_);fill:#002C76;" d="M153.87,205.3
					c-35.33,0-64.08,28.74-64.08,64.07c0,35.34,28.75,64.09,64.08,64.09c35.34,0,64.08-28.75,64.08-64.09
					C217.96,234.05,189.21,205.3,153.87,205.3 M153.87,330.68c-33.8,0-61.29-27.5-61.29-61.3c0-33.79,27.49-61.29,61.29-61.29
					c33.8,0,61.3,27.51,61.3,61.29C215.17,303.18,187.67,330.68,153.87,330.68"/>
				<path style="clip-path:url(#SVGID_00000058567377279490605570000008360081067357836452_);fill:#002C76;" d="M199.42,269.61
					c0-25.43-20.61-46.04-46.03-46.04c-25.43,0-46.04,20.61-46.04,46.04c0,3.2,0.33,6.32,0.95,9.34c-2.58,0.46-7.05,1.31-9.89,2.12
					l13.41,24.4c0,0,4.31-1.6,10.44-1.94c8.2,7.52,19.13,12.13,31.14,12.13c11.98,0,22.9-4.58,31.08-12.08
					c0.32-0.02,4.8-0.11,10.92,1.91l13.18-24.39c0,0-3.47-1.17-10.12-2.05C199.09,276,199.42,272.84,199.42,269.61 M164.95,245.32
					h14.55v7.93c-1.6-1.37-4.24-2.25-7.23-2.25c-3.05,0-5.74,0.92-7.32,2.33V245.32z M164.95,257.62h14.55v7.93
					c-1.6-1.37-4.24-2.26-7.23-2.26c-3.05,0-5.74,0.92-7.32,2.33V257.62z M172.32,269.62c0,0-0.47,5.11-6.81,5.3h-24.15
					c0,0-5.15,0.66-7.22-5.3H172.32z M145.95,233.7h14.56v7.93c-1.6-1.36-4.25-2.26-7.24-2.26c-3.05,0-5.73,0.92-7.33,2.34V233.7z
					 M145.95,245.32h14.56v7.93c-1.6-1.37-4.25-2.25-7.24-2.25c-3.05,0-5.73,0.92-7.33,2.33V245.32z M145.95,257.62h14.56v7.93
					c-1.6-1.37-4.25-2.26-7.24-2.26c-3.05,0-5.73,0.92-7.33,2.33V257.62z M126.95,245.32h14.56v7.93c-1.6-1.37-4.25-2.25-7.24-2.25
					c-3.05,0-5.73,0.92-7.32,2.33V245.32z M126.95,257.62h14.56v7.93c-1.6-1.37-4.25-2.26-7.24-2.26c-3.05,0-5.73,0.92-7.32,2.33
					V257.62z M206.29,282.44l-11.65,20.97c-21.59-5.83-37.36,2.42-37.36,2.42h-7.72c-18.39-8.44-36.9-2.55-36.9-2.55l-11.14-20.98
					c38.76-8.17,51.33,2.57,51.33,2.57h1.24C172.38,273.72,206.29,282.44,206.29,282.44"/>
				<path style="clip-path:url(#SVGID_00000058567377279490605570000008360081067357836452_);fill:#002C76;" d="M131.6,315.91
					c-0.94,0.08-1.78,0.06-2.52-0.03l-0.42,1.32c1.41,0.19,2.69,0.2,3.84,0.02l-1.74,5.42l2.7,0.87l2.43-7.57l-2.19-0.7
					C133.23,315.6,132.54,315.83,131.6,315.91"/>
				<path style="clip-path:url(#SVGID_00000058567377279490605570000008360081067357836452_);fill:#002C76;" d="M145.86,318.36
					c-1.36-0.18-2.52-0.08-3.47,0.29c-0.95,0.37-1.47,0.95-1.58,1.74c-0.1,0.77,0.24,1.44,1.02,2.03c0.78,0.58,1.74,0.94,2.88,1.1
					c1.06,0.14,1.98,0.04,2.74-0.32c-0.23,0.9-0.57,1.47-1.01,1.71c-0.44,0.22-0.95,0.32-1.52,0.25c-0.45-0.07-0.81-0.19-1.07-0.37
					c-0.26-0.18-0.4-0.42-0.43-0.73l-2.75-0.19c0.12,0.66,0.51,1.21,1.17,1.63c0.66,0.42,1.56,0.7,2.71,0.86
					c1.59,0.21,2.92,0.05,3.99-0.44c1.08-0.5,1.71-1.48,1.89-2.91c0.19-1.41-0.16-2.49-1.03-3.23
					C148.53,319.02,147.35,318.55,145.86,318.36 M146.76,322.3c-0.4,0.19-0.87,0.23-1.41,0.16c-0.56-0.07-1.01-0.25-1.35-0.54
					c-0.34-0.28-0.48-0.68-0.41-1.19c0.06-0.49,0.28-0.84,0.65-1.01c0.37-0.17,0.82-0.22,1.34-0.16c0.55,0.07,1.01,0.27,1.4,0.59
					c0.38,0.32,0.54,0.72,0.48,1.21C147.39,321.81,147.16,322.13,146.76,322.3"/>
				<path style="clip-path:url(#SVGID_00000058567377279490605570000008360081067357836452_);fill:#002C76;" d="M162.65,318.95
					c-0.87-0.45-2-0.6-3.43-0.43c-1.42,0.16-2.49,0.56-3.23,1.19c-0.89,0.76-1.24,1.88-1.07,3.36c0.18,1.5,0.73,2.52,1.67,3.01
					c0.94,0.49,2.13,0.65,3.55,0.48c1.42-0.16,2.5-0.56,3.23-1.19c0.88-0.76,1.24-1.88,1.07-3.37
					C164.28,320.5,163.68,319.48,162.65,318.95 M161.43,324.33c-0.11,0.32-0.29,0.56-0.54,0.7c-0.25,0.15-0.54,0.24-0.88,0.28
					c-0.34,0.03-0.64,0.02-0.91-0.07c-0.28-0.08-0.52-0.29-0.73-0.61c-0.21-0.32-0.37-0.96-0.48-1.88c-0.1-0.93-0.08-1.6,0.06-2.01
					c0.11-0.32,0.29-0.55,0.55-0.7c0.25-0.15,0.54-0.25,0.87-0.28c0.34-0.04,0.65-0.01,0.92,0.07c0.28,0.08,0.52,0.3,0.73,0.61
					c0.21,0.34,0.37,0.96,0.47,1.88C161.6,323.25,161.58,323.92,161.43,324.33"/>
				<path style="clip-path:url(#SVGID_00000058567377279490605570000008360081067357836452_);fill:#002C76;" d="M174.95,315.1
					c-1.12-0.24-2.38-0.07-3.78,0.46c-1.28,0.5-2.26,1.14-2.91,1.91c-0.65,0.78-0.83,1.54-0.55,2.28c0.28,0.71,0.89,1.15,1.85,1.29
					c0.96,0.14,1.98,0,3.07-0.41c0.99-0.39,1.75-0.92,2.25-1.59c0.23,0.9,0.2,1.56-0.07,1.98c-0.28,0.41-0.68,0.73-1.22,0.93
					c-0.43,0.17-0.8,0.24-1.11,0.2c-0.31-0.03-0.55-0.16-0.73-0.43l-2.51,1.14c0.43,0.53,1.03,0.82,1.81,0.88
					c0.78,0.05,1.71-0.13,2.78-0.54c1.5-0.58,2.59-1.34,3.3-2.3c0.7-0.97,0.79-2.11,0.27-3.46
					C176.89,316.11,176.07,315.34,174.95,315.1 M173.85,318.6c-0.27,0.34-0.66,0.62-1.17,0.81c-0.53,0.21-1.01,0.27-1.45,0.19
					c-0.44-0.09-0.75-0.38-0.93-0.85c-0.18-0.47-0.15-0.87,0.09-1.19c0.24-0.33,0.61-0.59,1.1-0.79c0.51-0.19,1.01-0.25,1.51-0.14
					c0.49,0.1,0.82,0.38,1,0.83C174.16,317.87,174.1,318.25,173.85,318.6"/>
				<path style="clip-path:url(#SVGID_00000058567377279490605570000008360081067357836452_);fill:#002C76;" d="M100.71,266.51
					c0.24-0.56,0.4-0.92,0.49-1.08c0.13-0.22,0.28-0.38,0.44-0.47c0.16-0.08,0.36-0.1,0.57-0.09c0.34,0.03,0.63,0.16,0.86,0.42
					c0.24,0.23,0.35,0.58,0.31,1.02c-0.03,0.42-0.21,0.74-0.51,0.96c-0.3,0.22-0.77,0.36-1.38,0.38l0.06,1.36
					c1.04-0.01,1.85-0.23,2.42-0.64c0.58-0.42,0.9-1.05,0.97-1.91c0.04-0.6-0.03-1.1-0.23-1.51c-0.19-0.42-0.51-0.75-0.96-1
					c-0.44-0.26-0.93-0.4-1.46-0.45c-0.59-0.05-1.08,0-1.5,0.16c-0.41,0.14-0.74,0.37-1,0.67c-0.25,0.3-0.51,0.77-0.78,1.42
					c-0.27,0.66-0.51,1.06-0.72,1.22c-0.16,0.12-0.35,0.17-0.58,0.16c-0.24-0.02-0.42-0.11-0.55-0.27c-0.21-0.24-0.3-0.56-0.26-0.95
					c0.03-0.4,0.16-0.67,0.38-0.85c0.22-0.17,0.57-0.26,1.05-0.28l0.04-1.39c-0.85-0.05-1.54,0.13-2.09,0.52
					c-0.55,0.39-0.85,1.02-0.92,1.86c-0.04,0.53,0.03,0.98,0.22,1.37c0.19,0.38,0.48,0.69,0.87,0.92c0.39,0.23,0.83,0.36,1.3,0.4
					c0.73,0.07,1.37-0.1,1.91-0.47C100.05,267.71,100.4,267.22,100.71,266.51"/>
				<polygon style="clip-path:url(#SVGID_00000058567377279490605570000008360081067357836452_);fill:#002C76;" points="
					105.39,261.51 101.43,260.67 101.99,258.04 105.95,258.87 106.23,257.53 97.18,255.62 96.9,256.97 100.47,257.72 99.91,260.36 
					96.35,259.61 96.06,260.95 105.11,262.85 				"/>
				<path style="clip-path:url(#SVGID_00000058567377279490605570000008360081067357836452_);fill:#002C76;" d="M106.8,255.71
					l-1.79-1.24l0.92-2.58l2.17,0.15l0.5-1.4l-9.63-0.51l-0.5,1.38l7.83,5.58L106.8,255.71z M103.68,253.54l-2.92-2.01l3.56,0.25
					L103.68,253.54z"/>
				<polygon style="clip-path:url(#SVGID_00000058567377279490605570000008360081067357836452_);fill:#002C76;" points="
					109.39,249.14 104.01,246.35 110.67,246.68 111.3,245.46 103.08,241.21 102.49,242.34 108,245.18 101.21,244.84 100.6,246.02 
					108.81,250.27 				"/>
				<path style="clip-path:url(#SVGID_00000058567377279490605570000008360081067357836452_);fill:#002C76;" d="M107.94,241.97
					c0.72,0.51,1.48,0.88,2.25,1.11c0.77,0.22,1.47,0.23,2.12,0.03c0.64-0.21,1.16-0.59,1.58-1.17c0.32-0.47,0.53-0.99,0.61-1.61
					c0.08-0.61,0.05-1.15-0.1-1.61l-3.01-2.13l-1.72,2.42l1.28,0.91l0.92-1.3l0.96,0.68c0.06,0.3,0.07,0.62,0.03,0.95
					c-0.04,0.32-0.15,0.6-0.32,0.84c-0.34,0.48-0.83,0.7-1.5,0.68c-0.65-0.03-1.44-0.35-2.33-0.99c-0.83-0.58-1.36-1.18-1.58-1.77
					c-0.22-0.58-0.15-1.13,0.2-1.63c0.23-0.32,0.53-0.52,0.9-0.59c0.37-0.06,0.77,0,1.2,0.18l0.51-1.31
					c-0.78-0.38-1.5-0.52-2.17-0.4c-0.67,0.11-1.26,0.5-1.75,1.19c-0.37,0.54-0.56,1.08-0.57,1.61c0,0.7,0.21,1.39,0.65,2.07
					C106.54,240.79,107.15,241.41,107.94,241.97"/>
				<polygon style="clip-path:url(#SVGID_00000058567377279490605570000008360081067357836452_);fill:#002C76;" points="
					116.99,237.72 114.05,234.96 115.9,232.99 118.84,235.76 119.78,234.76 113.05,228.43 112.1,229.43 114.76,231.92 
					112.91,233.89 110.26,231.39 109.31,232.39 116.05,238.73 				"/>
				<path style="clip-path:url(#SVGID_00000058567377279490605570000008360081067357836452_);fill:#002C76;" d="M121.21,233.5
					l-0.89-1.99l2.13-1.73l1.78,1.26l1.15-0.93l-7.97-5.44l-1.14,0.92l3.79,8.83L121.21,233.5z M118.21,226.8l2.91,2.06l-1.45,1.18
					L118.21,226.8z"/>
				
					<rect x="123.14" y="221.08" transform="matrix(0.8305 -0.5571 0.5571 0.8305 -104.7407 107.2528)" style="clip-path:url(#SVGID_00000058567377279490605570000008360081067357836452_);fill:#002C76;" width="1.37" height="9.24"/>
				<polygon style="clip-path:url(#SVGID_00000058567377279490605570000008360081067357836452_);fill:#002C76;" points="
					131.28,226.62 128.23,220.01 132.51,226.05 133.71,225.5 131.88,218.33 134.94,224.93 136.1,224.39 132.22,216 130.34,216.87 
					131.88,223.1 128.12,217.9 126.24,218.77 130.12,227.15 				"/>
				<path style="clip-path:url(#SVGID_00000058567377279490605570000008360081067357836452_);fill:#002C76;" d="M137.83,223.84
					l-0.06-2.18l2.63-0.78l1.17,1.85l1.42-0.42l-5.27-8.09l-1.41,0.42l0.11,9.61L137.83,223.84z M139.52,219.52l-1.8,0.53l-0.1-3.55
					L139.52,219.52z"/>
				<path style="clip-path:url(#SVGID_00000058567377279490605570000008360081067357836452_);fill:#002C76;" d="M144.76,222.05
					l-0.59-3.81l0.28-0.04c0.31-0.05,0.54-0.05,0.7-0.01c0.15,0.06,0.31,0.16,0.47,0.33c0.16,0.16,0.46,0.57,0.92,1.23l1.29,1.84
					l1.62-0.25l-1.09-1.66c-0.43-0.66-0.77-1.11-1-1.36c-0.24-0.25-0.52-0.47-0.84-0.66c0.57-0.21,0.97-0.56,1.2-1.05
					c0.22-0.5,0.28-1.08,0.18-1.77c-0.08-0.54-0.26-1.01-0.51-1.39c-0.26-0.4-0.57-0.65-0.92-0.76c-0.35-0.12-0.89-0.12-1.6-0.01
					l-2.85,0.44l1.42,9.13L144.76,222.05z M144.64,214.3c0.54-0.08,0.88-0.13,0.99-0.13c0.23,0.02,0.42,0.11,0.57,0.28
					c0.15,0.18,0.25,0.42,0.29,0.73c0.04,0.27,0.04,0.51-0.03,0.7c-0.07,0.21-0.17,0.35-0.32,0.46c-0.15,0.09-0.55,0.19-1.2,0.3
					l-1,0.15l-0.36-2.32L144.64,214.3z"/>
				
					<rect x="149.68" y="212.11" transform="matrix(0.9981 -0.0614 0.0614 0.9981 -13.0166 9.6355)" style="clip-path:url(#SVGID_00000058567377279490605570000008360081067357836452_);fill:#002C76;" width="1.38" height="9.25"/>
				<polygon style="clip-path:url(#SVGID_00000058567377279490605570000008360081067357836452_);fill:#002C76;" points="
					154.03,221.26 155.4,221.29 155.56,213.6 157.58,213.64 157.61,212.09 152.21,211.98 152.18,213.54 154.19,213.58 				"/>
				<polygon style="clip-path:url(#SVGID_00000058567377279490605570000008360081067357836452_);fill:#002C76;" points="
					160.57,212.42 159.21,212.27 158.23,221.46 159.6,221.61 				"/>
				<polygon style="clip-path:url(#SVGID_00000058567377279490605570000008360081067357836452_);fill:#002C76;" points="
					163.65,214.84 163.43,222.23 164.72,222.51 167.57,215.68 166.04,222.79 167.29,223.06 169.24,214.03 167.22,213.59 
					164.7,219.5 164.83,213.08 162.81,212.64 160.86,221.67 162.11,221.95 				"/>
				<polygon style="clip-path:url(#SVGID_00000058567377279490605570000008360081067357836452_);fill:#002C76;" points="
					173.16,225.19 173.7,223.73 170.12,222.42 170.98,220.07 174.2,221.25 174.74,219.79 171.52,218.6 172.23,216.67 175.69,217.94 
					176.23,216.47 171.48,214.73 168.29,223.4 				"/>
				<path style="clip-path:url(#SVGID_00000058567377279490605570000008360081067357836452_);fill:#002C76;" d="M178.56,228.23
					c0.46,0.26,0.89,0.41,1.27,0.42c0.39,0.01,0.74-0.07,1.07-0.24c0.34-0.17,0.65-0.43,0.95-0.79c0.3-0.36,0.73-1.02,1.29-1.97
					l2.48-4.19l-1.19-0.69l-2.6,4.41c-0.38,0.63-0.66,1.07-0.86,1.32c-0.2,0.26-0.44,0.42-0.71,0.51c-0.28,0.09-0.59,0.03-0.92-0.17
					c-0.33-0.2-0.54-0.45-0.62-0.76c-0.07-0.31-0.03-0.64,0.11-1.01c0.09-0.22,0.33-0.67,0.74-1.36l2.55-4.31l-1.19-0.7l-2.51,4.26
					c-0.53,0.89-0.89,1.59-1.08,2.08c-0.13,0.34-0.19,0.71-0.19,1.09c0,0.37,0.09,0.75,0.28,1.09
					C177.63,227.56,178,227.9,178.56,228.23"/>
				<polygon style="clip-path:url(#SVGID_00000058567377279490605570000008360081067357836452_);fill:#002C76;" points="
					182.87,230.85 186.62,226.09 185.04,232.56 186.12,233.42 191.84,226.15 190.84,225.36 187.01,230.23 188.64,223.63 
					187.59,222.8 181.87,230.07 				"/>
				
					<rect x="186.03" y="230.71" transform="matrix(0.6885 -0.7253 0.7253 0.6885 -108.4282 210.3649)" style="clip-path:url(#SVGID_00000058567377279490605570000008360081067357836452_);fill:#002C76;" width="9.24" height="1.37"/>
				<polygon style="clip-path:url(#SVGID_00000058567377279490605570000008360081067357836452_);fill:#002C76;" points="
					196.26,230.45 195.27,229.33 189.94,237.26 190.93,238.37 199.46,234.07 198.49,232.97 192.26,236.26 				"/>
				<polygon style="clip-path:url(#SVGID_00000058567377279490605570000008360081067357836452_);fill:#002C76;" points="
					195.71,244.85 197,243.97 194.84,240.82 196.91,239.4 198.85,242.23 200.14,241.36 198.2,238.52 199.89,237.36 201.98,240.4 
					203.27,239.52 200.4,235.34 192.78,240.57 				"/>
				<path style="clip-path:url(#SVGID_00000058567377279490605570000008360081067357836452_);fill:#002C76;" d="M196.79,246.82
					l3.44-1.75l0.13,0.25c0.14,0.28,0.22,0.49,0.22,0.65c0,0.17-0.05,0.35-0.16,0.55c-0.11,0.2-0.4,0.62-0.89,1.26l-1.34,1.8
					l0.75,1.47l1.23-1.56c0.49-0.62,0.81-1.09,0.98-1.38c0.16-0.3,0.28-0.64,0.36-1.01c0.37,0.48,0.83,0.75,1.37,0.8
					c0.54,0.07,1.12-0.06,1.73-0.38c0.49-0.25,0.88-0.56,1.17-0.93c0.29-0.37,0.43-0.75,0.43-1.11c0-0.37-0.17-0.88-0.5-1.53
					l-1.32-2.57l-8.23,4.2L196.79,246.82z M203.63,243.33l0.49,0.95c0.25,0.49,0.4,0.81,0.43,0.91c0.06,0.23,0.03,0.43-0.09,0.63
					c-0.12,0.2-0.31,0.37-0.59,0.5c-0.25,0.13-0.47,0.19-0.69,0.2c-0.2,0-0.38-0.05-0.52-0.17c-0.15-0.11-0.36-0.46-0.66-1.04
					l-0.46-0.91L203.63,243.33z"/>
				<path style="clip-path:url(#SVGID_00000058567377279490605570000008360081067357836452_);fill:#002C76;" d="M203.93,250.33
					c-0.24,0.4-0.36,1-0.35,1.78c0.01,0.6,0.01,0.99-0.01,1.16c-0.03,0.27-0.1,0.46-0.21,0.61c-0.12,0.13-0.27,0.24-0.48,0.31
					c-0.32,0.12-0.64,0.12-0.96-0.01c-0.31-0.13-0.54-0.4-0.69-0.8c-0.14-0.4-0.12-0.77,0.07-1.09c0.19-0.33,0.55-0.63,1.1-0.92
					l-0.62-1.21c-0.94,0.42-1.59,0.96-1.95,1.57c-0.35,0.62-0.38,1.34-0.09,2.15c0.2,0.56,0.48,0.99,0.82,1.28
					c0.34,0.31,0.77,0.48,1.28,0.52c0.51,0.04,1.02-0.01,1.52-0.2c0.55-0.19,0.99-0.45,1.3-0.75c0.32-0.31,0.53-0.65,0.64-1.02
					c0.11-0.38,0.15-0.92,0.14-1.62c-0.03-0.71,0.03-1.17,0.16-1.4c0.09-0.18,0.25-0.31,0.45-0.38c0.23-0.08,0.43-0.08,0.62,0.01
					c0.29,0.14,0.5,0.4,0.62,0.77c0.14,0.36,0.13,0.67,0,0.92c-0.13,0.25-0.41,0.49-0.83,0.71l0.53,1.27
					c0.8-0.31,1.36-0.75,1.7-1.33c0.34-0.58,0.36-1.27,0.07-2.08c-0.18-0.49-0.43-0.88-0.76-1.15c-0.33-0.27-0.72-0.44-1.17-0.48
					c-0.45-0.05-0.9,0-1.34,0.16C204.79,249.36,204.27,249.76,203.93,250.33"/>
				
					<rect x="201.03" y="256.11" transform="matrix(0.968 -0.251 0.251 0.968 -57.8746 59.8439)" style="clip-path:url(#SVGID_00000058567377279490605570000008360081067357836452_);fill:#002C76;" width="9.25" height="1.38"/>
				<polygon style="clip-path:url(#SVGID_00000058567377279490605570000008360081067357836452_);fill:#002C76;" points="
					209.48,259.91 201.91,261.22 202.15,262.58 209.72,261.28 210.06,263.25 211.6,262.99 210.68,257.67 209.15,257.93 				"/>
				<polygon style="clip-path:url(#SVGID_00000058567377279490605570000008360081067357836452_);fill:#002C76;" points="
					202.65,266.97 202.72,268.35 206.59,268.14 212.09,270.35 212,268.77 208.25,267.4 211.83,265.61 211.74,263.98 206.53,266.77 
									"/>
				<path style="clip-path:url(#SVGID_00000058567377279490605570000008360081067357836452_);fill:#002C76;" d="M123.71,294.42
					c-0.19-0.02-0.38,0.1-0.61,0.13c-0.73,0.12-1.45,0.18-2.27,0.36c-0.36,0.07-0.76,0.23-1.17,0.16c-0.26-0.45-0.58-1.54-0.4-2.26
					c0.09-0.38,0.3-0.76,0.37-1.2c0.14-0.85-0.13-1.73,0.14-2.47c0.1-0.24,0.33-0.4,0.46-0.6c0.09-0.14,0.49-1.42,0.43-1.6
					c-0.06-0.13-0.13-0.24-0.2-0.36c-0.19-0.12-0.39-0.17-0.73-0.14c-1.15,0.59-1.37,1.92-1.56,3.44c0.03,0.42,0.07,0.83,0.1,1.25
					c-0.05,0.67-0.09,1.34-0.13,2.01c0.12,0.56,0.24,1.24,0.27,2.02c-0.2,0.15-0.44,0.13-0.75,0.14c-0.3,0.03-0.6,0.05-0.9,0.07
					c-0.81-0.13-1.11-0.56-1.72,0.29c-0.16,0.24-0.52,0.47-0.31,1c0.15,0.37,1.16,0.71,1.68,0.76c2.35,0.21,4.41-0.45,6.31-0.97
					c0.31-0.07,0.63-0.14,0.94-0.21c0.22-0.12,0.49-0.38,0.72-0.5c0.19-0.11,0.48-0.02,0.58-0.23
					C125.25,294.78,124.21,294.49,123.71,294.42"/>
				<path style="clip-path:url(#SVGID_00000058567377279490605570000008360081067357836452_);fill:#002C76;" d="M154.59,292.54
					c-0.17-0.47-0.34-0.95-0.51-1.42c-0.13-0.56,0.04-1.17-0.21-1.54c-0.31-0.06-0.53,0-0.81,0.07c-0.22-0.03-0.44-0.05-0.66-0.07
					c-0.54,0.45-1.8,0.49-2.82,0.5c-0.02-0.04-0.03-0.08-0.05-0.11c0.33-0.69,1.68-1.82,2.38-2.17c0.28-0.14,0.65-0.02,0.94-0.12
					c0.26-0.1,0.72-0.54,0.55-0.9c-0.13-0.23-0.56-0.32-0.91-0.22c-0.16,0.1-0.31,0.2-0.47,0.28c-0.67,0.03-1.35,0.05-2.03,0.08
					c-0.3,0.01-0.72,0.18-0.95,0.05c-0.15-0.12-0.17-0.35-0.32-0.47c-0.17-0.02-0.35-0.03-0.52-0.03c-0.31,0.15-0.51,0.18-0.7,0.44
					c-0.04,0.38-0.08,0.77-0.13,1.17c0.89,0.53,1.86,0.08,2.91-0.05c0.18-0.01,0.36-0.02,0.54-0.03h0.04
					c-0.05,0.38-1.4,1.29-1.73,1.56c-0.77,0.63-1.5,1.47-2.06,2.29c-0.21,0.39-0.42,0.77-0.63,1.15c-0.19,0.07-0.38,0.13-0.56,0.21
					c-0.67,0.28-1.67,0.63-2.05,1.21c-0.04,0-0.08,0-0.12,0c-0.39-0.71-0.3-2.78,0.07-3.31c0.17-0.24,0.64-0.17,0.75-0.47
					c0.14-0.4-0.1-0.94-0.15-1.24c0.03-0.04,0.07-0.09,0.11-0.11c1.05,0.13,1.18-0.11,1.34-1.04c0.03-0.16,0.11-0.34,0.01-0.52
					c-0.1-0.17-1.14-0.64-1.42-0.55c-0.19,0.1-0.71,1.01-0.62,1.4c0.05,0.23,0.24,0.39,0.13,0.67c-0.16,0.42-0.66,0.57-0.75,1.04
					c-0.05,0.23,0.1,0.33,0.16,0.47c0.09,0.26,0.05,0.59-0.01,0.85c-0.29,1.4-0.81,2.76-0.47,4.42c0.08,0.4-0.15,0.84,0.01,1.15
					c0.04,0.09,0.09,0.13,0.19,0.16c0.15,0.06,0.34-0.02,0.45-0.05c0.97-0.32,0.32-1.21,0.77-1.87c0.1-0.18,0.96-0.67,1.31-0.59
					c0.08,0.57-0.27,1.48,0.18,1.96c0.25,0.28,0.74,0.25,1.15,0.35c0.95,0.23,2.21,0.25,3.17-0.07c0.43-0.16,0.85-0.31,1.29-0.46
					c0.46-0.04,0.93-0.08,1.39-0.12c0.37-0.23,0.59-1,0.18-1.3c-0.01-0.04-0.01-0.1-0.01-0.14c0.22-0.15,0.45-0.31,0.67-0.46
					c0.18-0.16,0.22-0.41,0.46-0.54c0.61-0.2,1.04,0.62,1.65-0.26C156.3,293.03,155.15,292.63,154.59,292.54 M152.12,294.83
					c-0.39-0.05-0.49-0.39-0.86-0.45c-0.03,0.03-0.06,0.05-0.09,0.05c-0.08,0.46,0.05,0.58,0.14,0.92
					c-0.01,0.02-0.02,0.03-0.02,0.04c-0.66,0.36-3.84,0.17-4.41-0.08c-0.04-0.2,0.02-0.48,0.15-0.59c0.13-0.11,1.44-0.53,1.62-0.48
					c0.02,0.01,0.05,0.01,0.07,0.02c0.07,0.46-0.02,0.64,0.19,1.01c1.82,0.43,1.12-0.82,1.81-1.28c0.5,0.01,1.44-0.14,1.92,0.04
					C152.93,294.24,152.26,294.74,152.12,294.83 M153.17,292.41c-0.3,0.18-2.09,0.13-2.5,0c-0.05-0.16-0.09-0.33-0.13-0.49
					c-0.21-0.05-0.51-0.13-0.73-0.05c-0.26,0.13-0.33,0.5-0.48,0.72c-0.4,0.1-0.93,0.17-1.32,0.09c-0.02-0.02-0.04-0.06-0.05-0.09
					c-0.12-0.31,0.34-0.93,0.49-1.15c0.2,0,0.4,0,0.59,0c0.27-0.07,0.66-0.2,1.04-0.27c0.65-0.1,1.8,0.1,2.59-0.23
					c0.06,0.01,0.13,0.01,0.19,0.01C153.14,291.13,153.23,291.95,153.17,292.41"/>
				<path style="clip-path:url(#SVGID_00000058567377279490605570000008360081067357836452_);fill:#002C76;" d="M139.78,292.36
					c-0.7-0.45-0.1-1.77-1.01-2.2c-0.78-0.37-3,0.5-3.94,0.31c-0.1,0.03-0.14,0.01-0.17-0.12c0.27-0.44,1.27-1.56,1.75-1.73
					c0.31-0.11,0.67,0,0.99-0.12c0.2-0.08,0.23-0.35,0.39-0.47c0.27-0.19,0.6-0.18,0.75-0.47c0.02-0.08,0.03-0.15,0.04-0.23
					c-0.12-0.19-0.23-0.3-0.42-0.41c-0.68-0.1-2.66,0.77-3.23,0.28c0.05-0.23,0.11-0.48,0.17-0.72c0.18-0.26,0.65-0.35,0.5-0.87
					c-0.06-0.08-0.13-0.16-0.2-0.25c-0.19-0.01-0.37-0.02-0.56-0.04c-0.2,0.15-0.42,0.22-0.56,0.43c-0.08,0.11-0.15,0.23-0.23,0.35
					c-0.92,0.75-1.95,1.28-2.76,2.12c-1.28,1.32-2.17,3.06-2.91,4.9c-0.16,0.42-0.32,0.83-0.48,1.25c-0.02,0.56-0.05,1.12-0.07,1.68
					c-0.04,0.16-0.18,0.33-0.13,0.59c0.05,0.21,0.13,0.58,0.23,0.73c0.5,0.11,1.11-0.05,1.22-0.45c0.14-0.53-0.4-0.91-0.47-1.4
					c-0.07-0.55,0.27-2.18,0.45-2.7c0.47-1.32,1.61-3.39,2.58-4.21c0.55-0.42,1.11-0.85,1.66-1.27c0.04,0,0.06,0,0.1,0
					c0.13,0.27-0.01,0.77,0.17,1.04c0.32,0.47,1.45,0.26,2.09,0.3c0.01,0.03,0.02,0.06,0.03,0.11c-0.36,0.35-0.73,0.72-1.08,1.07
					c-0.16,0.21-0.32,0.4-0.48,0.6c-0.16,0.06-0.3,0.12-0.45,0.18c-0.24,0.24-0.47,0.49-0.71,0.73c-0.12,0.18-0.12,0.38-0.22,0.6
					c-0.05,0.1-0.69,1.2-0.75,1.22c-0.37,0.24-1,0.19-1.42,0.19c-0.11,0.11-0.21,0.22-0.32,0.33c-0.58,0.39-1.23,0.35-1.2,1.31
					c0.8,0.86,1.45,0.16,2.44,0.08c0.06,0.13,0.01,0.23,0.03,0.39c0.09,0.57,0.09,1.04,0.37,1.39c0.65,0.82,2.2,0.5,3.27,0.29
					c0.23,0,0.46,0,0.69,0c0.62-0.16,1.16-0.44,1.95-0.45c0.17-0.27,0.68-1.03,0.25-1.33c0.03-0.13,1.29-1.4,1.4-1.44
					c0.35-0.1,0.55,0.12,0.87-0.13c0.3-0.25,0.39-0.9,0.06-1.22C140.3,292.43,140.01,292.5,139.78,292.36 M136.75,295.46
					c-0.72,0.27-3.44,0.67-3.81-0.04c-0.12-0.24-0.05-0.58,0.05-0.74c0.28-0.06,1.24-0.3,1.55-0.21c0.33,0.11,0.61,0.42,1.15,0.28
					c0.39-0.09,0.44-0.41,0.72-0.56c0.27-0.06,0.53-0.12,0.8-0.19c0.22-0.01,0.48-0.03,0.64,0.02c0,0.03,0.02,0.05,0.02,0.08
					C137.51,294.59,137.01,294.85,136.75,295.46 M138.29,292.34c-0.14,0.23-0.53,0.03-0.87,0.09c-0.42,0.05-0.85,0.1-1.28,0.13
					c-0.26-0.07-0.49-0.44-0.84-0.4c-0.45,0.06-0.38,0.5-0.69,0.63c-0.25,0.1-0.8,0.18-1.08,0.1c-0.04-0.26,0.09-0.8,0.3-0.91
					c0.24,0.02,0.47,0.04,0.71,0.05c0.77-0.07,2.64-0.17,3.21-0.46c0.09-0.01,0.19-0.01,0.28-0.02
					C138.15,291.7,138.4,292.07,138.29,292.34"/>
				<path style="clip-path:url(#SVGID_00000058567377279490605570000008360081067357836452_);fill:#002C76;" d="M128,290.66
					c0.03,0.14,0.07,0.27,0.11,0.4c0.09,0.01,0.8-0.2,0.96-0.27c0.28-0.56-0.09-1.14-0.14-1.74c0.01-0.02,0.01-0.04,0.02-0.05
					c0.39-0.22,0.92,0.49,1.51-0.05c0.69-0.63,0.57-2.15-0.63-2.14c-0.38,0.29-0.82,0.63-0.99,1.12c-0.12,0.35-0.07,0.8-0.26,1.07
					c-0.23,0.34-0.81,0.62-0.91,1.05C127.58,290.44,127.88,290.5,128,290.66"/>
				<path style="clip-path:url(#SVGID_00000058567377279490605570000008360081067357836452_);fill:#002C76;" d="M183.9,292.8
					c0.8,0.37,0.61-1.71,0.77-2.08c0.18-0.41,1.53-0.58,2.09-0.73c1.82-0.47,3.72-1.16,5.86-1.18c0.02,0.03,0.05,0.05,0.07,0.08
					c-0.05,0.33-0.13,0.59,0.27,0.58c0.16,0.23,0.25,0.56,0.52,0.68c0.88,0.35,1.41-0.89,1.16-1.74c-0.22-0.73-1.33-0.77-2.18-0.84
					c-0.01-0.04-0.02-0.09-0.03-0.14c0.53-0.71,0.96-1.83,0.58-3.06c-0.14-0.27-0.73-0.42-1.12-0.25c-0.69,0.29-1.3,1.09-2.14,1.22
					c-0.01,0-0.02-0.01-0.03-0.02c-0.05-0.39,0.29-0.81,0.15-1.26c-0.04-0.1-0.08-0.14-0.17-0.19c-0.11,0-0.21-0.01-0.31-0.02
					c-0.62,0.33-0.85,0.77-1.22,1.31c-0.03,0.01-0.06,0.01-0.09,0.01c-0.08-0.24-0.14-0.35-0.27-0.52
					c-0.93-0.19-1.27,2.02-1.87,2.47c-0.01-0.01-0.02-0.01-0.03-0.02c0-0.23,0.02-0.47,0.03-0.69c0.1-0.05,0.18-0.03,0.3-0.07
					c0.31-0.23-0.01-1.23-0.27-1.35c-0.33,0.02-0.63,0.2-0.7,0.44c0.02,0.15,0.02,0.3,0.04,0.45c-0.11,0.56-0.25,1.09-0.14,1.8
					c0.04,0.27,0.14,0.7,0.05,0.98c-0.01,0.02-0.02,0.05-0.02,0.07c-0.21,0.01-0.32-0.1-0.5-0.16c-0.31-0.09-0.76,0.2-0.89,0.38
					c-0.46,0.65-0.31,2.32-0.11,3.03C183.77,292.19,183.74,292.72,183.9,292.8 M190.28,286.69c0.06-0.25-0.03-0.62,0.09-0.81
					c0.26-0.39,1.07-0.4,1.5-0.64c0.33,0.02,0.3,0.56,0.26,0.82c-0.09,0.45-0.49,1.45-0.96,1.38c-0.01-0.02-0.02-0.05-0.03-0.06
					c0.18-0.24,0.9-0.59,0.73-1.02c-0.12-0.26-0.46-0.21-0.76-0.14c-0.88,0.21-0.65,0.86-0.91,1.52c-0.12,0.03-0.24,0.04-0.37,0.06
					c-0.01-0.03-0.02-0.07-0.03-0.11C190,287.4,190.19,287.05,190.28,286.69 M188.25,285.97c0.13,0.07,0.36,0.37,0.32,0.58
					c-0.1,0.18-0.21,0.37-0.31,0.56c-0.11,0.34-0.22,0.68-0.33,1.02c-0.12,0.04-0.22,0.08-0.4,0.08c-0.01-0.01-0.02-0.01-0.03-0.02
					C187.55,287.07,187.62,286.63,188.25,285.97 M186.55,287.08c0.05,0.03,0.04,0.03,0.08,0.07c0.14,0.34-0.03,1.23-0.23,1.38
					c-0.08,0.02-0.16,0.02-0.23,0.04c-0.02-0.04-0.03-0.07-0.05-0.11C185.95,288.07,186.37,287.29,186.55,287.08"/>
				<path style="clip-path:url(#SVGID_00000058567377279490605570000008360081067357836452_);fill:#002C76;" d="M122.79,290.29
					c0.17-0.13,0.35-0.29,0.44-0.51c0.29-0.76-0.13-1.38-0.71-1.57c-0.24,0.01-0.49,0.03-0.73,0.03c-0.19-0.05-0.22-0.19-0.52-0.17
					c-0.38,0.32-0.68,1.18-0.66,1.84C121.36,290.34,121.93,290.97,122.79,290.29"/>
				<path style="clip-path:url(#SVGID_00000058567377279490605570000008360081067357836452_);fill:#002C76;" d="M190.14,292.34
					c-0.02-0.01-0.03-0.03-0.05-0.04c-0.01-0.03-0.02-0.05-0.02-0.07c0.25-0.33,0.45-0.21,0.76-0.43c0.42-0.28,0.44-0.97,0.16-1.33
					c-0.18-0.02-0.36-0.04-0.55-0.06c-0.33,0.04-0.64,0.08-0.97,0.13c-1.12,0.28-3.94,0.49-3.5,1.88c0.61,0.3,1.38-0.18,1.91-0.34
					c0.24-0.07,0.61-0.21,0.73-0.07c-0.06,0.18-0.12,0.37-0.18,0.55c-0.61,0.38-1.28,0.5-1.99,0.82c-0.36,0.16-0.59,0.5-0.88,0.73
					c-0.25,0.2-0.74,0.79-0.43,1.27c0.16,0.25,0.76,0.32,1.19,0.21c0.44-0.13,0.76-0.59,1.11-0.84c0.1-0.07,1.33-0.45,1.46-0.47
					c0.46,0.74-0.11,1.84-0.63,2.2c-0.26,0.18-0.51,0.26-0.67,0.53c-0.09,0.13,0.05,0.17,0.01,0.35c-0.15,0.61-0.37,1.55,0.65,1.15
					c0.48-0.19,0.45-0.71,0.73-1.08c0.11-0.08,0.21-0.16,0.33-0.24c0.8-0.86,1.12-1.89,1.04-3.48c0.53-0.37,1.8-0.03,2.5-0.28
					c0.39-0.2,0.23-1.1-0.1-1.23C192.32,292.04,190.72,292.32,190.14,292.34"/>
				<path style="clip-path:url(#SVGID_00000058567377279490605570000008360081067357836452_);fill:#002C76;" d="M169.72,287.18
					c-0.06-1.32-3.36-0.25-4.43-0.45c-0.3-0.54,0.22-1.4-0.68-1.43c-0.85,0.49-0.57,0.54-0.48,1.46c-0.43,0.46-3.35,0.4-4.2,0.64
					c-0.41,0.11-1.08,0.24-0.91,0.87c0.12,0.46,0.71,0.59,1.29,0.45c1.16-0.29,2.31-0.71,3.6-0.8c0.01,0.03,0.01,0.06,0.03,0.1
					c-0.24,0.32-2.46,1.23-2.99,1.42c-0.54,0.18-0.75,0.29-0.88,0.88c0,0.17-0.01,0.34-0.01,0.51c0.2,0.47,0.8,0.41,1.23,0.21
					c0.48-0.23,0.37-0.53,0.64-0.76c0.3-0.27,1.36-0.75,1.87-0.79c0.02,0.03,0.03,0.05,0.05,0.07c0.19,0.51-0.63,0.42-0.95,0.52
					c-0.65,0.21-0.79,0.48-0.66,1.11c-0.01,0.01-0.02,0.01-0.03,0.03c-0.16,0.22-1.52,0.74-1.87,0.83
					c-0.74,0.21-1.99,0.07-1.67,1.09c0.13,0.26,0.97,0.53,1.43,0.39c0.21-0.1,0.43-0.2,0.65-0.3c0.85-0.29,2.06-0.41,3.08-0.47
					c0.02,0.02,0.03,0.03,0.05,0.05v0.07v0.02c-0.46,0.3-1.3,0.18-1.93,0.32c-0.6,0.13-1.21,0.26-1.82,0.41
					c-0.19,0.06-0.39,0.12-0.58,0.18c-0.54,0.03-1.4,0.14-1.93,0.3c-0.06,0.12-0.14,0.27-0.08,0.46c0.21,0.46,1.25,0.24,1.8,0.12
					c0.86-0.21,1.91-0.22,2.92-0.42c0.31-0.04,0.63-0.07,0.94-0.1c0.32,0.03,0.66-0.14,0.97-0.03c0.07,0.03,0.05,0.03,0.09,0.09
					c-0.56,0.96-2.36,0.3-3.37,0.55c-0.42,0.1-1.25,0.46-0.92,1.04c0.34,0.66,3.3,0.01,4.07-0.02c0.03,0.05,0.07,0.1,0.1,0.15
					c-0.21,0.57-0.49,1.6-1.09,1.8c-0.33,0.02-0.66,0.04-1,0.06c0,0.06-0.01,0.12-0.02,0.2c0.28,0.27,0.23,0.58,0.42,0.8
					c0.06,0.08,0.1,0.09,0.22,0.12c0.96-0.54,1.74-1.13,2.28-2.05c0.17-0.3,0.35-1.03,0.54-1.25c0.24-0.29,1.03-0.25,1.36-0.46
					c0.48-0.3,0.71-0.98,1.1-1.43c0.5-0.59,1.74-0.24,1.71-1.35c-0.36-0.36-0.79-0.23-1.05-0.44c-0.19-0.16-0.24-0.46-0.45-0.61
					c-0.48-0.33-1.57-0.4-2.22-0.18c-0.06-0.05-0.04-0.03-0.08-0.1c0.09-0.08,0.19-0.17,0.28-0.25c0.15-0.22,0.09-0.7,0.31-0.83
					c0.43-0.31,1.9-0.5,1.62-1.33c-0.15-0.43-1.03-0.7-1.6-0.66c-0.3,0-0.6,0.02-0.9,0.03c-0.02-0.03-0.05-0.03-0.07-0.05v-0.03
					C166.33,287.41,169.41,287.81,169.72,287.18 M162.16,291.9c-0.01-0.02-0.01-0.03-0.02-0.04c0.3-0.14,0.6-0.28,0.91-0.41
					c0.2-0.04,0.4-0.08,0.59-0.12h0.16c0.03,0.06,0.05,0.12,0.08,0.19C163.52,291.78,162.76,291.9,162.16,291.9 M165.7,294.12
					c-0.07-0.04-0.07-0.05-0.11-0.12c0.11-0.4,0.35-0.28,0.72-0.44c0.15,0,0.3,0.01,0.45,0.02c0.04,0.06,0.06,0.05,0.07,0.16
					C166.74,293.88,165.9,294.17,165.7,294.12 M166.17,292.19c0.26-0.01,0.57-0.02,0.76,0.03c0.02,0.03,0.04,0.07,0.05,0.12
					c-0.15,0.2-0.7,0.25-1.03,0.27c-0.04-0.03-0.08-0.06-0.12-0.1C165.84,292.24,165.99,292.29,166.17,292.19 M165.56,289.14
					c0.09-0.21,0.31-0.2,0.51-0.29c0.18-0.02,0.37-0.03,0.54-0.03c0.03,0.03,0.05,0.05,0.07,0.06c-0.05,0.3-0.71,0.82-1.09,0.69
					c-0.02,0-0.05-0.01-0.07-0.02C165.49,289.41,165.5,289.25,165.56,289.14"/>
				<path style="clip-path:url(#SVGID_00000058567377279490605570000008360081067357836452_);fill:#002C76;" d="M177.91,293.45
					c-0.03-0.12-0.06-0.24-0.08-0.36c-0.12-0.29-0.45-0.37-0.89-0.35c-0.15,0.06-0.31,0.13-0.47,0.18c-0.87,0.64,0.15,1.53,0.5,2.02
					c0.45,0.63,1.03,1.23,1.7,1.61c0.31,0.11,0.62,0.22,0.93,0.33c0.45,0.24,1.02,0.6,1.61,0.66c0.15-0.11,0.19-0.31,0.32-0.41
					c0.33-0.1,0.66-0.2,0.99-0.3c0.31-0.57-0.41-1.08-0.7-1.28c-0.32-0.22-0.67-0.31-1.05-0.48c-0.81-0.39-1.72-0.8-2.42-1.31
					C178.25,293.69,177.99,293.55,177.91,293.45"/>
				<path style="clip-path:url(#SVGID_00000058567377279490605570000008360081067357836452_);fill:#002C76;" d="M177.25,288.54
					c-0.45-0.73,1.4-3.75-0.5-3.67c-0.33,0.18-0.84,0.51-0.71,1.06c0.06,0.23,0.13,0.45,0.18,0.68c-0.08,0.78-0.29,1.58-0.56,2.21
					c-0.94,0.37-3.77,0.8-3.37,2.18c0.41,0.81,0.87,1.03,1.97,0.96c0.02,0.02,0.03,0.05,0.05,0.07c-0.48,1.26-1.4,2.6-2.19,3.61
					c-0.58,0.75-1.39,1.41-2,2.19c0.01,0.05,0.02,0.1,0.03,0.16c0.06,0.02,0.13,0.03,0.19,0.04c1.34-0.9,2.92-2.24,3.85-3.51
					c0.36-0.49,0.75-1.01,1.07-1.53c0.32-0.49,0.47-1.1,0.91-1.47c0.68-0.57,2.99-0.67,3.32-1.49c0.07-0.18,0.08-0.55,0.02-0.78
					C179.27,288.36,178.28,288.49,177.25,288.54"/>
			</g>
		</g>
	</g>
</g>
</svg>
